<svg aria-hidden="true" style="position: absolute; width: 0; height: 0; overflow: hidden;" version="1.1" xmlns="http://www.w3.org/2000/svg" xmlns:xlink="http://www.w3.org/1999/xlink">
<defs>
<symbol id="icon-cd" viewBox="0 0 32 32">
<path stroke-linejoin="miter" stroke-linecap="butt" stroke-miterlimit="4" stroke-width="2.4" d="M16 28c-6.64 0-12-5.376-12-12 0-6.64 5.36-12 12-12 6.624 0 12 5.36 12 12 0 6.624-5.376 12-12 12z"></path>
<path stroke-linejoin="miter" stroke-linecap="round" stroke-miterlimit="4" stroke-width="2.4" d="M8.656 16c0-4.064 3.28-7.344 7.344-7.344"></path>
<path stroke-linejoin="miter" stroke-linecap="butt" stroke-miterlimit="4" stroke-width="2.4" d="M16 19.328c-1.856 0-3.344-1.488-3.344-3.344 0-1.84 1.488-3.328 3.344-3.328 1.84 0 3.328 1.488 3.328 3.328 0 1.856-1.488 3.344-3.328 3.344z"></path>
</symbol>
<symbol id="icon-freezer" viewBox="0 0 32 32">
<path stroke-linejoin="round" stroke-linecap="butt" stroke-miterlimit="4" stroke-width="2.0800" d="M23.392 2.992c1.104 0 2 0.896 2 2v20.384c0 1.104-0.896 2-2 2h-14.8c-1.104 0-2-0.896-2-2v-20.384c0-1.104 0.896-2 2-2h14.8z"></path>
<path stroke-linejoin="round" stroke-linecap="round" stroke-miterlimit="4" stroke-width="2.0800" d="M6.592 13.12h18.8M10.304 10.56v-4.048M10.304 19.44v-4.048M8.416 27.376v0.704c0 0.24 0.096 0.464 0.272 0.64 0.16 0.176 0.4 0.272 0.64 0.272h1.648c0.24 0 0.464-0.096 0.64-0.272 0.176-0.16 0.272-0.4 0.272-0.64v-0.704M20.096 27.376v0.704c0 0.24 0.096 0.48 0.256 0.64 0.176 0.176 0.416 0.272 0.656 0.272h1.648c0.24 0 0.48-0.096 0.656-0.272 0.16-0.16 0.256-0.4 0.256-0.64v-0.704"></path>
</symbol>
<symbol id="icon-gas" viewBox="0 0 32 32">
<path d="M25.056 13.984c-0.383-0.444-0.78-0.846-1.203-1.22l-0.013-0.011c-1.072-0.912-2.288-1.568-3.312-2.512-2.384-2.208-2.912-5.856-1.392-8.64-1.52 0.336-2.848 1.12-3.984 1.984-4.144 3.152-5.776 8.688-3.824 13.456 0.064 0.144 0.128 0.304 0.128 0.496 0 0.336-0.24 0.64-0.56 0.752-0.368 0.16-0.752 0.064-1.056-0.176-0.091-0.069-0.166-0.154-0.222-0.252l-0.002-0.004c-1.808-2.16-2.096-5.264-0.88-7.744-2.672 2.064-4.128 5.536-3.92 8.816 0.096 0.752 0.192 1.504 0.464 2.256 0.224 0.912 0.656 1.824 1.136 2.624 1.728 2.608 4.72 4.48 7.936 4.864 3.424 0.4 7.088-0.176 9.712-2.416 2.912-2.512 3.936-6.528 2.432-9.968l-0.208-0.4c-0.336-0.688-1.232-1.904-1.232-1.904zM20.016 23.504c-0.448 0.368-1.184 0.752-1.76 0.912-1.792 0.592-3.584-0.24-4.64-1.248 1.904-0.416 3.040-1.744 3.376-3.088 0.272-1.216-0.24-2.208-0.448-3.376-0.192-1.12-0.16-2.064 0.272-3.12 0.304 0.576 0.624 1.152 1.008 1.616 1.232 1.504 3.168 2.176 3.584 4.224 0.064 0.208 0.096 0.416 0.096 0.656 0.048 1.232-0.528 2.592-1.488 3.424z"></path>
</symbol>
<symbol id="icon-hob" viewBox="0 0 32 32">
<path fill="none" stroke="#101828" style="stroke: var(--color1, #101828)" stroke-linejoin="miter" stroke-linecap="butt" stroke-miterlimit="4" stroke-width="2.4" d="M28 6.656c0.352 0 0.688 0.144 0.928 0.4 0.247 0.234 0.4 0.564 0.4 0.93 0 0.005-0 0.010-0 0.015v-0.001 17.328c-0.004 0.732-0.596 1.324-1.328 1.328h-24c-0.003 0-0.006 0-0.010 0-0.735 0-1.331-0.594-1.334-1.328v-17.328c-0-0.004-0-0.009-0-0.014 0-0.366 0.153-0.696 0.4-0.929l0.001-0.001c0.234-0.247 0.564-0.4 0.93-0.4 0.005 0 0.010 0 0.015 0h23.999zM12 6.656v20"></path>
<path fill="none" stroke="#101828" style="stroke: var(--color1, #101828)" stroke-linejoin="round" stroke-linecap="round" stroke-miterlimit="4" stroke-width="2.4" d="M7.328 11.328v2.672M24.656 10.656l-8 11.344"></path>
<path d="M7.328 16.656c0.736 0 1.328 0.592 1.328 1.344 0 0.736-0.592 1.328-1.328 1.328s-1.328-0.592-1.328-1.328c0-0.752 0.592-1.344 1.328-1.344zM7.328 20.656c0.736 0 1.328 0.592 1.328 1.344 0 0.736-0.592 1.328-1.328 1.328s-1.328-0.592-1.328-1.328c0-0.752 0.592-1.344 1.328-1.344z"></path>
</symbol>
<symbol id="icon-microwave" viewBox="0 0 32 32">
<path stroke-linejoin="round" stroke-linecap="butt" stroke-miterlimit="4" stroke-width="2.24" d="M2.272 5.712c-0.304 0-0.592 0.112-0.8 0.336-0.224 0.208-0.336 0.496-0.336 0.8v18.288c0 0.304 0.112 0.592 0.336 0.8 0.208 0.224 0.496 0.336 0.8 0.336h27.44c0.304 0 0.592-0.112 0.8-0.336 0.224-0.208 0.336-0.496 0.336-0.8v-18.288c0-0.304-0.112-0.592-0.336-0.8-0.196-0.207-0.474-0.336-0.781-0.336-0.007 0-0.013 0-0.020 0h-27.439z"></path>
<path stroke-linejoin="round" stroke-linecap="round" stroke-miterlimit="4" stroke-width="2.24" d="M6.848 10.272c-0.304 0-0.592 0.128-0.8 0.336-0.208 0.206-0.336 0.491-0.336 0.807 0 0.003 0 0.007 0 0.010v-0.001 9.136c0 0.304 0.112 0.592 0.336 0.816 0.208 0.208 0.496 0.336 0.8 0.336h12.576c0.304 0 0.592-0.128 0.8-0.336 0.208-0.206 0.336-0.491 0.336-0.807 0-0.003 0-0.007-0-0.010v0-9.136c0-0.003 0-0.006 0-0.009 0-0.315-0.128-0.601-0.336-0.806l-0-0c-0.205-0.206-0.487-0.334-0.8-0.336h-12.576zM25.136 11.424h1.136M25.136 16h1.136"></path>
</symbol>
<symbol id="icon-radio" viewBox="0 0 32 32">
<path stroke-linejoin="miter" stroke-linecap="butt" stroke-miterlimit="4" stroke-width="2.0800" d="M4.224 9.552c1.552-1.552 4.080-1.552 9.104-1.552h5.328c5.024 0 7.552 0 9.104 1.552 1.568 1.568 1.568 4.080 1.568 9.104s0 7.552-1.568 9.104c-1.552 1.568-4.080 1.568-9.104 1.568h-5.328c-5.024 0-7.552 0-9.104-1.568-1.568-1.552-1.568-4.080-1.568-9.104s0-7.536 1.568-9.104z"></path>
<path stroke-linejoin="miter" stroke-linecap="butt" stroke-miterlimit="4" stroke-width="2.0800" d="M7.44 12.768c0.496-0.496 1.184-0.768 1.888-0.768h13.328c0.704 0 1.392 0.272 1.888 0.768 0.496 0.512 0.784 1.184 0.784 1.888s-0.288 1.392-0.784 1.888c-0.496 0.496-1.184 0.784-1.888 0.784h-13.328c-0.704 0-1.392-0.288-1.888-0.784s-0.784-1.184-0.784-1.888c0-0.704 0.288-1.376 0.784-1.888zM11.408 24.080c-0.365 0.357-0.865 0.577-1.416 0.577s-1.051-0.22-1.416-0.578l0 0c-0.355-0.369-0.574-0.871-0.576-1.424v-0c0-0 0-0.001 0-0.002 0-1.104 0.895-1.998 1.998-1.998 0.001 0 0.001 0 0.002 0h-0c0.528 0 1.024 0.208 1.408 0.592 0.368 0.368 0.592 0.88 0.592 1.408s-0.224 1.040-0.592 1.424z"></path>
<path stroke-linejoin="miter" stroke-linecap="round" stroke-miterlimit="4" stroke-width="2.0800" d="M20 15.328v2M17.328 22.656h6.672M8.656 7.984l11.344-5.328"></path>
</symbol>
<symbol id="icon-shower" viewBox="0 0 32 32">
<path stroke-linejoin="round" stroke-linecap="round" stroke-miterlimit="4" stroke-width="2.56" d="M5.328 5.328l3.328 3.328M18 8.656c-1.202-1.168-2.844-1.888-4.655-1.888-0.001 0-0.001 0-0.002 0h0c-1.744 0.016-3.408 0.704-4.64 1.936s-1.92 2.896-1.936 4.64c0 1.728 0.672 3.408 1.888 4.656M20 6.656l-13.344 13.344M18.656 22.656v0.016M13.328 21.328v0.016M17.328 17.328v0.016M21.328 13.328v0.016M14.656 26.656v0.016M22.656 18.656v0.016M26.656 14.656v0.016"></path>
</symbol>
<symbol id="icon-toilet" viewBox="0 0 32 32">
<path d="M24 4c1.936 0 3.264 1.632 4.032 3.312 0.768 1.648 1.232 3.808 1.28 6.144l0.016 0.544v12.656c0 0.176-0.032 0.368-0.112 0.528-0.064 0.16-0.176 0.32-0.304 0.432-0.123 0.125-0.272 0.223-0.44 0.285l-0.008 0.003c-0.155 0.061-0.335 0.096-0.523 0.096-0.002 0-0.004 0-0.005 0h0l-0.16-0.032-3.776-0.624-3.792 0.624c-0.16 0.032-0.32 0.032-0.48 0l-0.16-0.048-3.568-1.184-3.584 1.184c-0.192 0.064-0.384 0.080-0.592 0.064-0.204-0.033-0.387-0.1-0.551-0.196l0.007 0.004c-0.166-0.111-0.305-0.25-0.413-0.411l-0.003-0.005c-0.104-0.159-0.173-0.35-0.192-0.555l-0-0.005-0.016-0.16v-3.904c-0.704 0.736-1.584 1.248-2.656 1.248-1.952 0-3.28-1.648-4.048-3.328-0.816-1.776-1.296-4.144-1.296-6.672 0-2.544 0.48-4.912 1.296-6.688 0.736-1.6 1.984-3.168 3.776-3.312h16.272zM24 6.656h-12.304c0.128 0.208 0.24 0.432 0.336 0.656 0.816 1.776 1.296 4.144 1.296 6.688v10.816l2.24-0.752c0.272-0.096 0.576-0.096 0.848 0l3.68 1.232 3.68-0.624c0.144-0.016 0.288-0.016 0.432 0l2.448 0.416v-11.088c0-2.256-0.416-4.224-1.040-5.584-0.688-1.472-1.36-1.76-1.616-1.76zM8 6.656c-0.272 0-0.944 0.288-1.632 1.76-0.624 1.36-1.040 3.328-1.040 5.584 0 2.24 0.416 4.208 1.040 5.568 0.688 1.472 1.36 1.76 1.632 1.76 0.256 0 0.928-0.288 1.616-1.76 0.624-1.36 1.040-3.328 1.040-5.568 0-2.256-0.416-4.224-1.040-5.584-0.688-1.472-1.36-1.76-1.616-1.76zM8 11.328c0.736 0 1.328 1.184 1.328 2.672 0 1.472-0.592 2.656-1.328 2.656s-1.344-1.184-1.344-2.656c0-1.488 0.608-2.672 1.344-2.672z"></path>
</symbol>
<symbol id="icon-water" viewBox="0 0 32 32">
<path stroke-linejoin="miter" stroke-linecap="butt" stroke-miterlimit="4" stroke-width="2.4" d="M16 28.992c-5.536 0-9.008-3.472-9.008-8.992 0-5.936 6.448-13.936 8.432-16.256 0.132-0.157 0.329-0.256 0.549-0.256 0.009 0 0.019 0 0.028 0.001l-0.001-0c0.096 0 0.208 0.016 0.304 0.064s0.192 0.112 0.256 0.192c1.984 2.32 8.432 10.32 8.432 16.256 0 5.52-3.472 8.992-8.992 8.992z"></path>
<path stroke-linejoin="round" stroke-linecap="round" stroke-miterlimit="4" stroke-width="2.4" d="M21.488 20.496c0 1.184-0.464 2.336-1.312 3.184-0.848 0.832-1.984 1.312-3.184 1.312"></path>
</symbol>
</defs>
</svg>
